<svg width="0" height="0" class="hidden">
  <symbol xmlns="http://www.w3.org/2000/svg" viewBox="0 0 38 56" id="slider_previous">
    <path fill-rule="evenodd" fill="#fff" d="M26.836 1.999L1.014 28l25.822 26.001 9.631-9.565L20.145 28l16.322-16.436L26.836 2z"></path>
  </symbol>
  <symbol xmlns="http://www.w3.org/2000/svg" viewBox="0 0 38 56" id="slider_next">
    <path fill-rule="evenodd" fill="#fff" d="M10.633 54.001L36.455 28 10.633 1.999l-9.632 9.565L17.324 28 1 44.436 10.633 54z"></path>
  </symbol>
  <symbol xmlns="http://www.w3.org/2000/svg" viewBox="0 0 49 49" id="icon_wheel">
    <path fill-rule="evenodd" fill="#e8663c" d="M47.988 27.932v-5.885l-4.915-.393a18.25 18.25 0 00-.752-2.82l4.058-2.796-2.943-5.096-4.456 2.118A18.562 18.562 0 0036.919 11l2.118-4.456L33.94 3.6l-2.797 4.058a18.282 18.282 0 00-2.82-.752L27.93 1.99h-5.884l-.393 4.916c-.97.178-1.911.43-2.82.752l-2.797-4.057-5.096 2.942 2.118 4.456c-.74.632-1.43 1.32-2.062 2.061l-4.455-2.117-2.942 5.095 4.057 2.796c-.323.91-.574 1.852-.752 2.821l-4.916.393.001 5.884 4.915.394c.178.968.429 1.91.752 2.82L3.6 33.943l2.942 5.094 4.454-2.116c.633.74 1.322 1.43 2.063 2.061l-2.118 4.456 5.096 2.941 2.796-4.056a18.28 18.28 0 002.82.752l.393 4.915h5.885l.393-4.915c.969-.178 1.91-.43 2.82-.753l2.797 4.057 5.096-2.941-2.118-4.457a18.51 18.51 0 002.061-2.061l4.456 2.117 2.943-5.095-4.058-2.796c.323-.91.574-1.852.752-2.82l4.915-.394zm-23 8.558c-6.351 0-11.5-5.149-11.5-11.5 0-6.352 5.149-11.5 11.5-11.5 6.352 0 11.5 5.148 11.5 11.5 0 6.351-5.148 11.5-11.5 11.5z"></path>
  </symbol>
    <symbol xmlns="http://www.w3.org/2000/svg" viewBox="0 0 52 43" id="icon_check">
    <path fill-rule="evenodd" fill="#e8663c" d="M50.19 10.146l-7.733-7.732a2.3 2.3 0 00-3.256 0L21.08 20.536l-7.417-7.417a2.303 2.303 0 00-3.256 0l-7.732 7.733a2.302 2.302 0 000 3.255l8.742 8.743c.08.117.172.228.274.33l7.733 7.733a2.302 2.302 0 003.256 0l27.51-27.511a2.302 2.302 0 000-3.256z"></path>
  </symbol>
  <symbol xmlns="http://www.w3.org/2000/svg" viewBox="0 0 45 42" id="icon_man">
    <path fill-rule="evenodd" fill="#e8663c" d="M29.805 23.076a12.213 12.213 0 004.963-9.837c0-6.756-5.475-12.232-12.231-12.232-6.755 0-12.23 5.476-12.23 12.232a12.21 12.21 0 004.961 9.837C7.512 25.814 1.997 32.8 1.997 40.993h41.08c0-8.192-5.516-15.18-13.272-17.917z"></path>
  </symbol>
  <symbol xmlns="http://www.w3.org/2000/svg" viewBox="0 0 128 128" id="facebook-icon">
    <path fill="none" d="M0 0h128v128H0z"></path>
    <path clip-rule="evenodd" d="M68.369 128H7.065A7.065 7.065 0 010 120.935V7.065A7.064 7.064 0 017.065 0h113.871A7.064 7.064 0 01128 7.065v113.87a7.065 7.065 0 01-7.064 7.065H88.318V78.431h16.638l2.491-19.318H88.318V46.78c0-5.593 1.553-9.404 9.573-9.404l10.229-.004V20.094c-1.769-.235-7.841-.761-14.906-.761-14.749 0-24.846 9.003-24.846 25.535v14.246h-16.68v19.318h16.681V128z" fill="#4460A0" fill-rule="evenodd"></path>
  </symbol>
  <symbol xmlns="http://www.w3.org/2000/svg" shape-rendering="geometricPrecision" text-rendering="geometricPrecision" image-rendering="optimizeQuality" fill-rule="evenodd" clip-rule="evenodd" viewBox="0 0 6.827 6.827" id="twitter-icon">
    <rect height="6.827" rx="1.456" ry="1.456" width="6.827" fill="#0a93e2"></rect>
    <path d="M5.49 2.378a1.64 1.64 0 01-.471.129c.17-.102.3-.263.36-.454a1.65 1.65 0 01-.52.199.82.82 0 00-1.42.561A.82.82 0 003.46 3a2.33 2.33 0 01-1.691-.857.82.82 0 00.254 1.096.816.816 0 01-.372-.103v.01c0 .398.283.73.658.805a.817.817 0 01-.37.014.822.822 0 00.766.57 1.646 1.646 0 01-1.215.34 2.32 2.32 0 001.258.368c1.51 0 2.335-1.25 2.335-2.335 0-.035 0-.07-.002-.106.16-.115.3-.26.41-.424z" fill="#fff"></path>
  </symbol>
  <symbol fill="none" xmlns="http://www.w3.org/2000/svg" viewBox="0 0 34 27" id="email-icon">
    <path d="M28.5 25.6h-23c-2.1 0-3.8-1.707-3.8-3.816V5.416C1.7 3.307 3.4 1.6 5.5 1.6h23c2.1 0 3.8 1.707 3.8 3.816v16.368c.1 2.109-1.7 3.816-3.8 3.816z" stroke="#4F4F4F" stroke-linecap="round" stroke-miterlimit="10" stroke-width="2"></path>
    <path d="M17 14.956L2.6 3.608m28.8 0L17 14.956" stroke="#4F4F4F" stroke-linecap="round" stroke-linejoin="round" stroke-miterlimit="10" stroke-width="2"></path>
  </symbol>
  <symbol xmlns="http://www.w3.org/2000/svg" viewBox="0 0 512 512" id="rss-icon">
    <rect width="512" height="512" fill="#f80" rx="15%"></rect>
    <circle cx="145" cy="367" r="35" fill="#fff"></circle>
    <path fill="none" stroke="#fff" stroke-width="60" d="M109 241c89 0 162 73 162 162M109 127c152 0 276 124 276 276"></path>
  </symbol>
   <symbol xmlns="http://www.w3.org/2000/svg" shape-rendering="geometricPrecision" text-rendering="geometricPrecision" image-rendering="optimizeQuality" fill-rule="evenodd" clip-rule="evenodd" viewBox="0 0 341 341" id="vimeo-icon">
    <rect height="341" rx="33" ry="33" width="341" fill="#25bad8"></rect>
    <path d="M292 114c-13 78-90 144-114 159-23 15-44-6-52-22-8-18-35-117-42-125-6-8-27 8-27 8l-10-13s42-50 74-56c34-7 34 52 42 84s13 50 20 50 20-18 34-45c15-27 0-50-29-33 12-68 118-84 104-7z" fill="#fefefe"></path>
  </symbol>
</svg>
